<mxfile host="app.diagrams.net" modified="2024-07-15T05:53:19.011Z" agent="Mozilla/5.0 (Windows NT 10.0; Win64; x64) AppleWebKit/537.36 (KHTML, like Gecko) Chrome/126.0.0.0 Safari/537.36" etag="HpiAMdcY8lDT9hbQm9lf" version="24.6.5" type="github">
  <diagram name="第 1 页" id="-iVclRH7ZjgX7lHOp6Vp">
    <mxGraphModel dx="1434" dy="746" grid="1" gridSize="10" guides="1" tooltips="1" connect="1" arrows="1" fold="1" page="1" pageScale="1" pageWidth="827" pageHeight="1169" math="0" shadow="0">
      <root>
        <mxCell id="0" />
        <mxCell id="1" parent="0" />
        <mxCell id="5_Z6QWfCkasNR7xGlo31-1" value="" style="whiteSpace=wrap;html=1;aspect=fixed;sketch=1;hachureGap=4;jiggle=2;curveFitting=1;strokeColor=#FF6392;fontFamily=Architects Daughter;fontSource=https%3A%2F%2Ffonts.googleapis.com%2Fcss%3Ffamily%3DArchitects%2BDaughter;fontColor=#5AA9E6;fillColor=#FFE45E;" vertex="1" parent="1">
          <mxGeometry x="510" y="230" width="200" height="200" as="geometry" />
        </mxCell>
        <mxCell id="5_Z6QWfCkasNR7xGlo31-2" value="" style="whiteSpace=wrap;html=1;aspect=fixed;sketch=1;hachureGap=4;jiggle=2;curveFitting=1;strokeColor=#FF6392;fontFamily=Architects Daughter;fontSource=https%3A%2F%2Ffonts.googleapis.com%2Fcss%3Ffamily%3DArchitects%2BDaughter;fontColor=#5AA9E6;fillColor=#FFE45E;" vertex="1" parent="1">
          <mxGeometry x="130" y="570" width="80" height="80" as="geometry" />
        </mxCell>
      </root>
    </mxGraphModel>
  </diagram>
</mxfile>
